<?xml version="1.0" encoding="UTF-8" standalone="no"?>
<svg
   height="457"
   viewBox="-.02 .04 300.27 55.34"
   width="457"
   version="1.1"
   id="svg4"
   sodipodi:docname="skullcandy-logo-1.svg"
   inkscape:version="1.2.2 (b0a8486541, 2022-12-01)"
   xmlns:inkscape="http://www.inkscape.org/namespaces/inkscape"
   xmlns:sodipodi="http://sodipodi.sourceforge.net/DTD/sodipodi-0.dtd"
   xmlns="http://www.w3.org/2000/svg"
   xmlns:svg="http://www.w3.org/2000/svg">
  <defs
     id="defs8" />
  <sodipodi:namedview
     id="namedview6"
     pagecolor="#ffffff"
     bordercolor="#666666"
     borderopacity="1.0"
     inkscape:showpageshadow="2"
     inkscape:pageopacity="0.0"
     inkscape:pagecheckerboard="0"
     inkscape:deskcolor="#d1d1d1"
     showgrid="false"
     inkscape:zoom="0.524"
     inkscape:cx="1254.771"
     inkscape:cy="229.00763"
     inkscape:window-width="2560"
     inkscape:window-height="963"
     inkscape:window-x="0"
     inkscape:window-y="32"
     inkscape:window-maximized="1"
     inkscape:current-layer="svg4" />
  <path
     d="m 217.58537,-28.162848 c -8.68396,-24.025627 49.96173,-86.260692 -57.54572,-86.260692 -91.58685,0.0579 -100.097133,90.950031 -104.149648,98.070879 -5.948795,7.9408638 -10.384066,16.9095319 -13.083835,26.457137 -2.43151,11.752294 0,24.66245 7.583993,24.66245 11.28915,0 -2.605189,-22.751979 11.28915,-22.751979 17.599495,0 38.209431,28.541287 43.82506,44.635563 C 96.125691,72.744785 82.926069,84.554973 73.257925,80.039313 62.075271,76.216135 54.39313,65.911949 53.921637,54.103214 c 0,-10.478647 -9.668144,-10.131288 -8.683961,3.242013 1.157861,15.457451 9.552358,29.467576 22.5783,37.862072 14.655267,11.635981 26.457197,26.467601 34.504274,43.361911 4.34198,10.65232 10.0155,16.09427 25.64663,16.09427 15.63113,0 3.70516,13.54698 14.35749,13.54698 10.65232,0 4.34198,-14.99431 10.65232,-14.99431 6.31035,0 0,14.35749 11.92598,14.35749 18.23632,0 10.0155,-22.75198 16.09427,-26.57292 6.13667,-3.87884 84.00286,-45.446063 82.67132,-96.739329 -1.33154,-51.2932663 -37.22525,-48.3986123 -46.08289,-72.424239 z M 141.1665,116.91719 c -8.74649,-5.02697 -19.18625,-6.20092 -28.83075,-3.24201 -6.94717,2.60519 -13.720657,-1.27365 -8.04714,-18.873133 2.5473,-8.915533 6.36824,-17.425816 11.28915,-25.299274 13.60488,14.068018 26.10978,29.120218 37.57261,44.982917 0.63683,5.15248 -7.58399,7.12084 -11.92597,1.91047 v 0.52103 z m 53.20374,-29.178098 c -23.33091,0.694717 -42.78298,-17.599495 -43.4777,-40.930405 -0.69471,-23.330911 17.5995,-42.7829845 40.93041,-43.4777014 23.33091,-0.6947169 42.78299,17.5994954 43.4777,40.9304054 v 0.926289 c 0.34736,22.867766 -17.88896,41.740909 -40.75673,42.088267 h -0.17368 z"
     id="path2"
     sodipodi:nodetypes="ccccssccccccsssscsccccccccccssccccc"
     style="stroke-width:5.78931" />
</svg>
